<svg enable-background="new 0 0 492 492" version="1.1" viewBox="0 0 492 492" xml:space="preserve" xmlns="http://www.w3.org/2000/svg"><path d="m484.13 104.48-16.116-16.116c-5.064-5.068-11.816-7.856-19.024-7.856s-13.964 2.788-19.028 7.856l-226.45 226.45-141.48-141.49c-5.064-5.06-11.82-7.852-19.028-7.852-7.204 0-13.956 2.792-19.024 7.852l-16.12 16.112c-5.068 5.076-7.852 11.836-7.852 19.036 0 7.204 2.784 13.96 7.852 19.028l159.74 159.74c0.212 0.3 0.436 0.58 0.696 0.836l16.12 15.852c5.064 5.048 11.82 7.572 19.084 7.572h0.084c7.212 0 13.968-2.524 19.024-7.572l16.124-15.992c0.26-0.256 0.48-0.468 0.612-0.684l244.78-244.76c10.5-10.476 10.5-27.52 4e-3 -38.008z"/></svg>