<svg xmlns="http://www.w3.org/2000/svg" viewBox="0 0 524 524"><path d="M215.2 523.9c-16.9-.1-30.6-14-30.5-30.9V303.8c0-8-2.6-15.7-7.4-22.2l-.5-.6v-.1L12.3 49.1c-6.8-9.5-7.7-21.9-2.4-32.3C15.2 6.5 25.7.1 37.3.1h449.8c11.6 0 22.1 6.4 27.4 16.7 5.4 10.4 4.4 22.8-2.4 32.3L347.5 281c-.2.3-.3.5-.5.7-4.7 6.4-7.3 14.2-7.3 22.2v153.7c0 13.5-8.1 25-20.3 28.9l-92.2 35.2c-3.8 1.6-7.8 2.3-11.8 2.3l-.2-.1zm-1.6-268.8c10.5 14.2 16 31.1 16 48.7v168.8l65.3-24.9V303.8c0-17.7 5.6-34.5 16-48.7L460.1 45H64.4l149.2 210.1z"/></svg>