<svg width="119.2" height="45.264" clip-rule="evenodd" fill-rule="evenodd" stroke-linejoin="round" stroke-miterlimit="1.414" version="1.1" viewBox="0 0 119.2 45.264" xmlns="http://www.w3.org/2000/svg">
 <path d="m0 3e-3h11.137v8.565h-11.137z" fill="#a9bf00"/>
 <path d="m0 14.533h11.137v30.711h-11.137z" fill="#707173"/>
 <path d="m108.06 45.264h11.135l-16.462-45.231h-11.136zm-38.264-45.224 1e-3 -7e-3h-11.141l2e-3 7e-3 -2.965 8.149c-4.105-5.133-11.181-8.189-21.522-8.189h-17.076v8.567h11.146v-5e-3h4.466c11.207 0 16.38 4.25 16.38 13.711 0 9.462-5.251 14.397-15.988 14.397h-4.858v-22.137h-11.146v30.694h6e-3v5e-3h11.137v-5e-3h5.527c13.346 0 21.345-5.603 24.59-13.817l0.025-5e-3 5.848-16.067 10.891 29.926h11.136z" fill="#707173" fill-rule="nonzero"/>
 <path d="m86.25 45.264h-11.135l16.462-45.231h11.136z" fill="#a9bf00" fill-rule="nonzero"/>
</svg>
