<svg enable-background="new 0 0 384 384" fill="white" version="1.1" viewBox="0 0 384 384" xml:space="preserve" xmlns="http://www.w3.org/2000/svg">
		<path d="m353.19 252.05c-23.51 0-46.594-3.677-68.469-10.906-10.719-3.656-23.896-0.302-30.438 6.417l-43.177 32.594c-50.073-26.729-80.917-57.563-107.28-107.26l31.635-42.052c8.219-8.208 11.167-20.198 7.635-31.448-7.26-21.99-10.948-45.063-10.948-68.583 1e-3 -16.991-13.822-30.814-30.812-30.814h-70.52c-16.99 0-30.813 13.823-30.813 30.813 0 194.75 158.44 353.19 353.19 353.19 16.99 0 30.813-13.823 30.813-30.813v-70.323c-1e-3 -16.989-13.824-30.812-30.813-30.812z"/>
</svg>
