<?xml version="1.0" encoding="UTF-8" standalone="no"?>
<!-- Generator: Adobe Illustrator 19.0.0, SVG Export Plug-In . SVG Version: 6.00 Build 0)  -->

<svg
   xmlns:dc="http://purl.org/dc/elements/1.1/"
   xmlns:cc="http://creativecommons.org/ns#"
   xmlns:rdf="http://www.w3.org/1999/02/22-rdf-syntax-ns#"
   xmlns:svg="http://www.w3.org/2000/svg"
   xmlns="http://www.w3.org/2000/svg"
   xmlns:sodipodi="http://sodipodi.sourceforge.net/DTD/sodipodi-0.dtd"
   xmlns:inkscape="http://www.inkscape.org/namespaces/inkscape"
   version="1.1"
   id="Layer_1"
   x="0px"
   y="0px"
   viewBox="0 0 117.14386 511.99494"
   xml:space="preserve"
   sodipodi:docname="right.svg"
   width="117.14386"
   height="511.99493"
   inkscape:version="0.92.4 (5da689c313, 2019-01-14)"><metadata
   id="metadata4786"><rdf:RDF><cc:Work
       rdf:about=""><dc:format>image/svg+xml</dc:format><dc:type
         rdf:resource="http://purl.org/dc/dcmitype/StillImage" /><dc:title></dc:title></cc:Work></rdf:RDF></metadata><defs
   id="defs4784" /><sodipodi:namedview
   pagecolor="#ffffff"
   bordercolor="#666666"
   borderopacity="1"
   objecttolerance="10"
   gridtolerance="10"
   guidetolerance="10"
   inkscape:pageopacity="0"
   inkscape:pageshadow="2"
   inkscape:window-width="1920"
   inkscape:window-height="1016"
   id="namedview4782"
   showgrid="false"
   fit-margin-top="0"
   fit-margin-left="0"
   fit-margin-right="0"
   fit-margin-bottom="0"
   inkscape:zoom="0.46094201"
   inkscape:cx="-260.34023"
   inkscape:cy="255.9975"
   inkscape:window-x="0"
   inkscape:window-y="27"
   inkscape:window-maximized="1"
   inkscape:current-layer="Layer_1" />
<g
   id="g4749"
   transform="matrix(0.45761115,0,0,1,-58.575389,-6.4707419e-5)"
   style="fill:#000000;fill-opacity:1;opacity:0.2">
	<g
   id="g4747"
   style="fill:#000000;fill-opacity:1">
		<path
   d="M 381.039,248.62 146.373,3.287 C 142.29,-0.942 135.54,-1.13 131.29,2.954 c -4.25,4.073 -4.396,10.823 -0.333,15.083 L 358.56,255.995 130.956,493.954 c -4.063,4.26 -3.917,11.01 0.333,15.083 2.063,1.979 4.729,2.958 7.375,2.958 2.813,0 5.604,-1.104 7.708,-3.292 L 381.039,263.37 c 3.938,-4.125 3.938,-10.625 0,-14.75 z"
   id="path4745"
   inkscape:connector-curvature="0"
   style="fill:#000000;fill-opacity:1" />
	</g>
</g>
<g
   id="g4751"
   transform="translate(-128.00254,-6.4707419e-5)">
</g>
<g
   id="g4753"
   transform="translate(-128.00254,-6.4707419e-5)">
</g>
<g
   id="g4755"
   transform="translate(-128.00254,-6.4707419e-5)">
</g>
<g
   id="g4757"
   transform="translate(-128.00254,-6.4707419e-5)">
</g>
<g
   id="g4759"
   transform="translate(-128.00254,-6.4707419e-5)">
</g>
<g
   id="g4761"
   transform="translate(-128.00254,-6.4707419e-5)">
</g>
<g
   id="g4763"
   transform="translate(-128.00254,-6.4707419e-5)">
</g>
<g
   id="g4765"
   transform="translate(-128.00254,-6.4707419e-5)">
</g>
<g
   id="g4767"
   transform="translate(-128.00254,-6.4707419e-5)">
</g>
<g
   id="g4769"
   transform="translate(-128.00254,-6.4707419e-5)">
</g>
<g
   id="g4771"
   transform="translate(-128.00254,-6.4707419e-5)">
</g>
<g
   id="g4773"
   transform="translate(-128.00254,-6.4707419e-5)">
</g>
<g
   id="g4775"
   transform="translate(-128.00254,-6.4707419e-5)">
</g>
<g
   id="g4777"
   transform="translate(-128.00254,-6.4707419e-5)">
</g>
<g
   id="g4779"
   transform="translate(-128.00254,-6.4707419e-5)">
</g>
</svg>