<svg width="341.33" height="512" version="1.1" viewBox="0 0 341.33 512" xml:space="preserve" xmlns="http://www.w3.org/2000/svg">
<g transform="translate(-96.18 -2.1697)">
		<path d="m266.85 2.1697c-94.101 0-170.67 76.564-170.67 170.67 0 104 146.73 322.69 152.98 331.93 3.968 5.867 10.56 9.3872 17.621 9.4082h0.0645c7.04 0 13.653-3.4768 17.621-9.3008 6.251-9.131 153.04-225.32 153.04-332.03 0-94.102-76.565-170.67-170.67-170.67z" fill="#a9bf00"/>
	<circle cx="-75.413" cy="172.47" r="171.59" fill="#000d20" fill-opacity=".51269" stroke-width="1.7159"/><g transform="matrix(.53464 0 0 .53464 153.5 72.475)" fill="#fff"><path d="m167.29 272.13c-1.6016 0-3.2148-0.55078-4.5312-1.6719l-45.297-38.57c-1.5625-1.332-2.4609-3.2773-2.4609-5.332 0-2.0508 0.90234-3.9961 2.4609-5.3281l45.297-38.57c2.9414-2.5078 7.3594-2.1524 9.8672 0.78906 2.5039 2.9453 2.1523 7.3633-0.79297 9.8672l-39.035 33.242 39.035 33.242c2.9453 2.5078 3.2969 6.9258 0.79297 9.8672-1.3867 1.6289-3.3555 2.4648-5.3359 2.4648z"/><path d="m256.71 272.13c-1.9805 0-3.9492-0.83594-5.332-2.4648-2.5078-2.9414-2.1524-7.3594 0.78906-9.8672l39.035-33.242-39.035-33.242c-2.9414-2.5039-3.2969-6.9219-0.78906-9.8672 2.5039-2.9414 6.9258-3.2969 9.8633-0.78906l45.297 38.57c1.5625 1.332 2.4609 3.2773 2.4609 5.3281 0 2.0547-0.89844 4-2.4609 5.332l-45.297 38.57c-1.3164 1.1211-2.9297 1.6719-4.5312 1.6719z"/><path d="m195.96 301.06c-0.48047 0-0.96484-0.0508-1.4531-0.15234-3.7812-0.79688-6.2031-4.5117-5.4062-8.293l28.23-134.04c0.79687-3.7812 4.5078-6.2031 8.293-5.4062 3.7812 0.79688 6.2031 4.5078 5.4062 8.293l-28.23 134.04c-0.69532 3.2969-3.6016 5.5586-6.8398 5.5586z"/><path d="m377 374.09h-330c-25.914 0-47-21.082-47-47v-280.09c0-25.914 21.086-47 47-47h330c25.914 0 47 21.086 47 47v280.09c0 25.918-21.086 47-47 47zm-330-360.09c-18.195 0-33 14.805-33 33v280.09c0 18.195 14.805 33 33 33h330c18.195 0 33-14.805 33-33v-280.09c0-18.195-14.805-33-33-33z"/><path d="m417 112.09h-410c-3.8672 0-7-3.1328-7-7 0-3.8633 3.1328-7 7-7h410c3.8672 0 7 3.1367 7 7 0 3.8672-3.1328 7-7 7z"/><path d="m119.6 78.594c-12.211 0-22.152-9.9414-22.152-22.152 0-12.215 9.9414-22.152 22.152-22.152 12.215 0 22.152 9.9375 22.152 22.152 0 12.211-9.9375 22.152-22.152 22.152zm0-30.305c-4.4922 0-8.1523 3.6562-8.1523 8.1523s3.6602 8.1523 8.1523 8.1523c4.4961 0 8.1524-3.6562 8.1524-8.1523s-3.6562-8.1523-8.1524-8.1523z"/><path d="m51.539 78.379c-12.215 0-22.152-9.9375-22.152-22.152 0-12.215 9.9375-22.152 22.152-22.152 12.215 0 22.152 9.9375 22.152 22.152 0 12.215-9.9375 22.152-22.152 22.152zm0-30.305c-4.4922 0-8.1523 3.6602-8.1523 8.1523 0 4.4961 3.6602 8.1523 8.1523 8.1523 4.4961 0 8.1523-3.6562 8.1523-8.1523 0-4.4922-3.6562-8.1523-8.1523-8.1523z"/><path d="m187.66 78.805c-12.211 0-22.148-9.9375-22.148-22.152 0-12.211 9.9375-22.148 22.148-22.148 12.215 0 22.152 9.9375 22.152 22.148 0 12.215-9.9375 22.152-22.152 22.152zm0-30.305c-4.4922 0-8.1484 3.6562-8.1484 8.1523s3.6562 8.1523 8.1484 8.1523c4.4961 0 8.1524-3.6562 8.1524-8.1523s-3.6562-8.1523-8.1524-8.1523z"/></g></g>















</svg>
