<svg fill="white" enable-background="new 0 0 512 512" height="512" viewBox="0 0 512 512" width="512" xmlns="http://www.w3.org/2000/svg"><g><g><path d="m255.58 316.157c.034-.035.071-.067.105-.103l249.24-270.78c9.718-10.548 9.385-26.755-.756-36.896-10.141-10.141-26.348-10.473-36.893-.758l-183.258 168.679c-3.046 2.804-3.242 7.545-.439 10.591 2.803 3.045 7.545 3.242 10.591.439l183.26-168.682c4.613-4.25 11.702-4.104 16.139.332 4.435 4.435 4.581 11.524.328 16.141l-243.951 265.033-6.367-6.366-31.186-31.185 55.921-51.473c3.046-2.804 3.242-7.545.439-10.591-2.803-3.045-7.546-3.242-10.591-.439l-61.67 56.763c-.038.035-.07.074-.107.109-.038.037-.079.068-.117.105l-71.112 71.112c-18.963-4.439-39.572-2.083-57.844 8.198-21.73 12.226-36.394 30.763-42.407 53.605-2.966 11.27-3.048 22.591-3.128 33.539-.011 1.563-.022 3.126-.042 4.686-.155 12.133-1.227 20.981-6.252 30.298-1.1 2.04-3.068 4.338-5.153 6.771-5.415 6.32-12.83 14.976-9.505 26.666 4.47 15.691 20.432 19.483 36.091 19.483.182 0 .364-.004.547-.005.146.009 134.652.023 134.652.023 4.14 0 7.495-3.355 7.495-7.496s-3.356-7.495-7.495-7.495h-59.06c11.864-4.789 24.251-11.726 34.624-19.448 5.926-4.411 10.98-8.923 15.021-13.41 9.974-11.075 16.923-23.328 20.75-35.948h58.183c5.92 0 10.736 4.816 10.736 10.736 0 14.186 11.541 25.727 25.726 25.727h23.497c8.917 0 16.172 7.254 16.172 16.172s-7.255 16.172-16.172 16.172h-94.695c-4.14 0-7.495 3.355-7.495 7.495s3.356 7.496 7.495 7.496h94.695c17.183 0 31.163-13.98 31.163-31.163s-13.979-31.163-31.163-31.163h-23.497c-5.919 0-10.735-4.816-10.735-10.736 0-14.186-11.541-25.727-25.727-25.727h-55.131c.913-8.649.381-17.322-1.652-25.769l70.617-70.618c.042-.038.075-.08.113-.12zm-104.017 137.415c-3.381 3.754-7.698 7.595-12.833 11.418-10.435 7.768-23.65 14.919-35.35 19.128-10.585 3.806-21.549 6.48-32.616 8.444-11.219 1.991-23.494 4.009-34.906 3.887-6.704-.071-18.333-.572-20.614-8.608-1.008-3.552 1.313-6.78 6.472-12.802 2.507-2.927 5.1-5.954 6.964-9.409 7.078-13.125 7.987-27.434 8.089-41.99.076-10.483.148-20.385 2.634-29.832 4.956-18.827 17.149-34.166 35.26-44.357 10.144-5.708 21.173-8.417 32.059-8.417 22.938 0 45.236 12.032 57.262 33.401 13.96 24.806 9.2 55.128-12.421 79.137zm27.68-82.267c-.69-1.418-1.41-2.829-2.194-4.222-8.57-15.228-21.394-26.577-36.146-33.44l60.666-60.666 38.001 38z"/></g></g></svg>