<svg fill="white" height="448pt" viewBox="0 -41 448.00015 448" width="448pt" xmlns="http://www.w3.org/2000/svg"><path d="m430.804688 29.539062-20.074219-10.382812c-50.101563-25.546875-109.40625-25.539062-159.5.019531l-27.230469 14.085938-27.269531-14.105469c-50.101563-25.546875-109.40625-25.539062-159.5.015625l-20.039063 10.367187c-10.578125 5.445313-17.2148435 16.351563-17.191406 28.25v261.675782c0 11.09375 5.777344 21.386718 15.25 27.160156s21.269531 6.195312 31.128906 1.113281c44.347656-22.621093 96.847656-22.628906 141.199219-.023437l31.820313 16.464844c.121093.058593.246093.097656.363281.160156.160156.074218.320312.148437.484375.214844.246094.097656.5.183593.746094.261718.160156.050782.316406.101563.476562.144532.28125.074218.5625.128906.847656.175781.136719.023437.269532.054687.40625.074219.84375.113281 1.699219.113281 2.542969 0 .136719-.019532.273437-.050782.410156-.074219.28125-.046875.5625-.101563.84375-.175781.160157-.039063.316407-.09375.476563-.144532.253906-.078125.5-.164062.75-.261718.160156-.066407.320312-.140626.480468-.214844.121094-.058594.246094-.101563.363282-.160156l31.785156-16.441407c44.347656-22.621093 96.847656-22.628906 141.199219-.023437 9.863281 5.105468 21.667969 4.695312 31.152343-1.074219 9.484376-5.773437 15.273438-16.074219 15.273438-27.175781v-261.675782c.027344-11.898437-6.613281-22.808593-17.195312-28.25zm-313.792969 281.238282c-27.734375-.011719-55.078125 6.558594-79.78125 19.175781-3.660157 1.894531-8.042969 1.742187-11.5625-.402344-3.519531-2.140625-5.667969-5.964843-5.667969-10.085937v-261.675782c-.011719-4.417968 2.457031-8.464843 6.382812-10.484374l20-10.347657c44.347657-22.617187 96.847657-22.625 141.199219-.019531l26.417969 13.667969v288.257812l-17.269531-8.929687c-24.683594-12.605469-52.003907-19.171875-79.71875-19.15625zm310.988281 8.6875c0 4.128906-2.15625 7.957031-5.6875 10.097656s-7.921875 2.28125-11.582031.371094c-50.101563-25.546875-109.40625-25.539063-159.5.019531l-17.230469 8.914063v-288.261719l26.378906-13.648438c44.347656-22.617187 96.847656-22.625 141.199219-.019531l20.039063 10.367188c3.925781 2.019531 6.394531 6.066406 6.382812 10.484374zm0 0"/></svg>