<svg fill="white" height="415pt" viewBox="-124 0 415 415.24398" width="415pt" xmlns="http://www.w3.org/2000/svg"><path d="m161.632812 349.242188c3.90625-18 5.851563-37.519532 5.78125-58.003907-.046874-12.746093-1.972656-25.472656-5.714843-37.828125-.003907-.007812-.007813-.011718-.011719-.019531s0-.011719-.003906-.019531c-1.511719-4.878906-3.332032-9.71875-5.40625-14.386719l-8.046875-18.105469c-6.523438-14.675781-9.832031-30.257812-9.832031-46.332031v-37.6875l8.921874-2.972656c7.199219-2.398438 11.519532-9.578125 10.273438-17.074219l-.367188-2.160156c-3.554687-21.355469-23.128906-35.980469-44.667968-33.300782l-1.820313.234376c-10.503906 1.332031-20.984375-3.132813-27.34375-11.609376l-4.539062-6.058593c2.304687-10.0625 2.109375-20.375-.59375-30.027344l-1.773438-6.359375c-5.601562-20-26.414062-31.742188-46.429687-26.128906-9.683594 2.707031-17.746094 9.027344-22.679688 17.800781-4.933594 8.765625-6.15625 18.933594-3.445312 28.621094l1.972656 7.066406c3.425781 12.273437 8.125 29.074219 24.355469 32.828125 5.746093 1.324219 8.644531 2.652344 10.03125 3.484375-.320313.28125-.671875.554687-.980469.75-.300781.179687-.585938.386719-.859375.605469l-17.058594 14.226562c-16.667969 13.878906-24.375 35.71875-20.121093 56.988282.074218.371093.179687.730468.3125 1.085937l12.082031 31.738281c1.273437 3.335938 3.914062 5.996094 7.238281 7.292969 3.328125 1.296875 7.082031 1.121094 10.28125-.472656l14.476562-7.238281 1.015626 3.039062c1.394531 4.1875.953124 8.894531-1.214844 12.902344-16.070313 29.753906-17.519532 63.410156-16.953125 80.824218.003906.117188.078125.214844.089843.328126-.007812.183593-.097656.339843-.089843.527343.101562 3.039063-1.808594 5.839844-4.632813 6.796875-4.480468 1.535156-8.101562 4.945313-9.933594 9.359375-1.859374 4.480469-1.707031 9.542969.421876 13.902344l8.277343 16.925781 13.480469 68.945313c.628906 3.199219 3.433594 5.511719 6.699219 5.511719h116.054687c1.972656 0 3.855469-.851563 5.15625-2.34375 1.292969-1.488282 1.878906-3.46875 1.605469-5.429688l-4.945313-35.410156c-1.050781-7.472656-.730468-15.148438.9375-22.816406zm-104.152343-130.632813c3.953125-7.320313 4.730469-15.960937 2.152343-23.714844l-.53125-1.597656c.269532.003906.523438.078125.792969.078125 9.074219 0 17.625-3.980469 23.480469-10.914062 2.425781-2.878907 2.066406-7.1875-.820312-9.621094-2.886719-2.4375-7.1875-2.058594-9.621094.820312-3.246094 3.855469-8 6.058594-13.039063 6.058594-9.414062 0-17.066406-7.652344-17.066406-17.066406 0-3.773438-3.054687-6.824219-6.828125-6.824219s-6.824219 3.050781-6.824219 6.824219c0 8.570312 3.542969 16.3125 9.21875 21.890625l-12.355469 6.179687-11.484374-30.175781c-3.03125-16.179687 2.90625-32.71875 15.582031-43.273437l16.699219-13.925782c4.324218-2.773437 8.792968-8.023437 7.820312-14.210937-1.441406-9.113281-12.855469-12.765625-21.3125-14.726563-7.726562-1.789062-10.914062-11.148437-14.289062-23.195312l-1.972657-7.066406c-1.726562-6.179688-.945312-12.660157 2.199219-18.253907 3.148438-5.585937 8.28125-9.621093 14.460938-11.34375 12.714843-3.546875 26.027343 3.898438 29.601562 16.652344l1.773438 6.359375c2.324218 8.300781 2.238281 17.273438-.246094 25.949219-.59375 2.050781-.1875 4.265625 1.097656 5.972656l6.507812 8.679687c9.28125 12.386719 24.625 18.859376 39.972657 16.964844l1.820312-.234375c14.191407-1.773437 27.144531 7.894531 29.492188 22.007813l.367187 2.160156c.132813.820312-.339844 1.605469-1.125 1.875l-13.589844 4.519531c-2.785156.933594-4.664062 3.539063-4.664062 6.480469v26.757812c-.160156.1875-.378906.296876-.519531.503907-3.5625 5.132812-11.441407 8.617187-20.320313 4.179687-3.367187-1.675781-7.480468-.320312-9.160156 3.050782-1.6875 3.375-.320312 7.472656 3.054688 9.160156 4.824218 2.414062 9.617187 3.46875 14.152343 3.46875 4.667969 0 9.027344-1.152344 12.867188-3.054688.195312 17.472656 3.832031 34.433594 10.929687 50.417969l8.054688 18.113281c.933594 2.105469 1.8125 4.253906 2.632812 6.421875l-104.339844 32.507813c.316407-17.066406 3.226563-42.359375 15.378907-64.855469zm-21.109375 121.214844c5.902344-.828125 18.117187-3.796875 34.132812-14.472657 3.140625-2.09375 3.988282-6.324218 1.894532-9.464843s-6.328126-3.980469-9.46875-1.894531c-17.957032 11.972656-30.03125 12.492187-30.410157 12.507812-.535156.003906-1.011719.195312-1.507812.316406l-4.378907-8.949218c-.5625-1.148438-.289062-2.167969-.082031-2.671876.199219-.46875.6875-1.316406 1.734375-1.671874 7.132813-2.429688 12.125-8.445313 13.46875-15.640626l108.636719-33.847656c.800781 3.3125 1.5 6.640625 2.015625 9.992188l-27.039062 12.113281c-3.441407 1.539063-4.980469 5.582031-3.433594 9.019531 1.132812 2.535156 3.617187 4.035156 6.230468 4.035156.933594 0 1.882813-.195312 2.789063-.601562l22.6875-10.167969c.027344.953125.113281 1.910157.117187 2.867188.066407 19.492187-1.773437 38.019531-5.472656 55.054687-2.007812 9.238282-2.382812 18.523438-1.113281 27.605469l2.667969 19.121094c-22.066406-31.40625-28.492188-80.554688-28.5625-81.082031-.464844-3.730469-3.765625-6.363282-7.625-5.917969-3.742188.472656-6.386719 3.878906-5.921875 7.621093.285156 2.292969 6.988281 53.683594 31.433593 87.898438h-63.984374c1.546874-23.585938 5.074218-46.5 5.109374-46.738281.582032-3.730469-1.972656-7.214844-5.699218-7.792969-3.726563-.546875-7.207032 1.972656-7.792969 5.699219-.15625 1-3.746094 24.332031-5.296875 48.832031h-13.054688zm0 0"/></svg>