<?xml version="1.0" encoding="iso-8859-1"?>
<!-- Generator: Adobe Illustrator 18.0.0, SVG Export Plug-In . SVG Version: 6.00 Build 0)  -->
<!DOCTYPE svg PUBLIC "-//W3C//DTD SVG 1.1//EN" "http://www.w3.org/Graphics/SVG/1.1/DTD/svg11.dtd">
<svg version="1.1" id="Capa_1" xmlns="http://www.w3.org/2000/svg" xmlns:xlink="http://www.w3.org/1999/xlink" x="0px" y="0px"
	 viewBox="0 0 462.47 462.47" fill="white" style="enable-background:new 0 0 462.47 462.47;" xml:space="preserve">
<path id="XMLID_469_" d="M455.585,10.396c0-6.654-6.179-11.594-12.659-10.142L162.271,62.98c-4.75,1.061-8.126,5.275-8.126,10.142
	c0,3.575,0,286.795,0,290.482c-17.386-13.946-40.949-20.093-63.238-20.093c-45.419,0-84.022,25.371-84.022,59.48
	c0,34.096,38.582,59.479,84.022,59.479c45.443,0,84.023-25.384,84.023-59.479V182.254l259.871-58.08V300.88
	c-17.418-13.969-40.995-20.093-63.238-20.093c-45.43,0-84.023,25.376-84.023,59.479c0,34.093,38.577,59.479,84.023,59.479
	c45.443,0,84.023-25.384,84.023-59.479C455.585,319.691,455.585,14.427,455.585,10.396z M434.8,23.368v17.155L174.93,98.603V81.448
	L434.8,23.368z M90.907,441.685c-34.279,0-63.237-17.72-63.237-38.694c0-20.976,28.959-38.695,63.237-38.695
	s63.238,17.72,63.238,38.695C154.145,423.966,125.185,441.685,90.907,441.685z M174.93,160.957V119.9L434.8,61.819v41.057
	L174.93,160.957z M371.562,378.96c-34.279,0-63.238-17.72-63.238-38.694s28.96-38.694,63.238-38.694s63.238,17.72,63.238,38.694
	S405.841,378.96,371.562,378.96z"/>
<g>
</g>
<g>
</g>
<g>
</g>
<g>
</g>
<g>
</g>
<g>
</g>
<g>
</g>
<g>
</g>
<g>
</g>
<g>
</g>
<g>
</g>
<g>
</g>
<g>
</g>
<g>
</g>
<g>
</g>
</svg>
