<svg width="341.33" height="512" version="1.1" viewBox="0 0 341.33 512" xml:space="preserve" xmlns="http://www.w3.org/2000/svg">
<g transform="translate(-96.18 -2.1697)">
		<path d="m266.85 2.1697c-94.101 0-170.67 76.564-170.67 170.67 0 104 146.73 322.69 152.98 331.93 3.968 5.867 10.56 9.3872 17.621 9.4082h0.0645c7.04 0 13.653-3.4768 17.621-9.3008 6.251-9.131 153.04-225.32 153.04-332.03 0-94.102-76.565-170.67-170.67-170.67z" fill="#a9bf00"/>
	<g transform="matrix(3.349 0 0 3.349 159.68 65.777)" fill="#fff"><path d="m32 23a4 4 0 1 0-4-4 4 4 0 0 0 4 4zm0-6a2 2 0 1 1-2 2 2 2 0 0 1 2-2z"/><path d="m55.62 54.98-0.11-0.25a1.939 1.939 0 0 0 0.18-1.98l-5.95-12.75h2.26v-2h-3.19l-8-17.16a9.259 9.259 0 0 0 0.19-1.84 9.016 9.016 0 0 0-8-8.94v-1.06h3a1 1 0 0 0 1-1v-4a1 1 0 0 0-1-1h-3v-1h-2v1h-3a1 1 0 0 0-1 1v4a1 1 0 0 0 1 1h3v1.06a9.016 9.016 0 0 0-8 8.94 9.259 9.259 0 0 0 0.19 1.84l-8 17.16h-3.19v2h2.26l-5.95 12.75a1.939 1.939 0 0 0 0.18 1.98l-0.11 0.25a5.013 5.013 0 0 0 2.41 6.65 1.106 1.106 0 0 0 0.43 0.09 1 1 0 0 0 0.9-0.57l1.82-3.89a2 2 0 0 0 1.63-1.13l7.52-16.13h5.91v2a2.006 2.006 0 0 0 2 2h2a2.006 2.006 0 0 0 2-2v-2h5.91l7.52 16.13a2 2 0 0 0 1.63 1.13l1.82 3.89a1 1 0 0 0 0.9 0.57 1.106 1.106 0 0 0 0.43-0.09 5.013 5.013 0 0 0 2.41-6.65zm-26.62-47.98v-2h6v2zm3 5a7 7 0 1 1-7 7 7.008 7.008 0 0 1 7-7zm-21.19 47.24a3.012 3.012 0 0 1-0.62-3.41l1.81 0.84zm2.94-3.96-3.62-1.69 14.05-30.14a9.237 9.237 0 0 0 2.97 3.12zm19.25-13.28h-2v-6h2zm2-4v-2a2.006 2.006 0 0 0-2-2h-2a2.006 2.006 0 0 0-2 2v2h-4.98l4.92-10.55a8.787 8.787 0 0 0 6.12 0l4.92 10.55zm16.29 16.8-1.04 0.49-13.4-28.72a9.237 9.237 0 0 0 2.97-3.12l14.05 30.14zm1.9 4.44-1.19-2.57 1.81-0.84a3.012 3.012 0 0 1-0.62 3.41z"/></g><circle cx="-75.413" cy="172.47" r="171.59" fill="#000d20" fill-opacity=".51269" stroke-width="1.7159"/></g>















</svg>
