<svg width="341.33" height="512" version="1.1" viewBox="0 0 341.33 512" xml:space="preserve" xmlns="http://www.w3.org/2000/svg">
<g transform="translate(-96.18 -2.1697)">
		<path d="m266.85 2.1697c-94.101 0-170.67 76.564-170.67 170.67 0 104 146.73 322.69 152.98 331.93 3.968 5.867 10.56 9.3872 17.621 9.4082h0.0645c7.04 0 13.653-3.4768 17.621-9.3008 6.251-9.131 153.04-225.32 153.04-332.03 0-94.102-76.565-170.67-170.67-170.67z" fill="#a9bf00"/>
	<circle cx="-75.413" cy="172.47" r="171.59" fill="#000d20" fill-opacity=".51269" stroke-width="1.7159"/><g transform="matrix(.39146 0 0 .39146 166.63 72.26)" fill="#fff"><path d="m255.58 316.16c0.034-0.035 0.071-0.067 0.105-0.103l249.24-270.78c9.718-10.548 9.385-26.755-0.756-36.896s-26.348-10.473-36.893-0.758l-183.26 168.68c-3.046 2.804-3.242 7.545-0.439 10.591 2.803 3.045 7.545 3.242 10.591 0.439l183.26-168.68c4.613-4.25 11.702-4.104 16.139 0.332 4.435 4.435 4.581 11.524 0.328 16.141l-243.95 265.03-6.367-6.366-31.186-31.185 55.921-51.473c3.046-2.804 3.242-7.545 0.439-10.591-2.803-3.045-7.546-3.242-10.591-0.439l-61.67 56.763c-0.038 0.035-0.07 0.074-0.107 0.109-0.038 0.037-0.079 0.068-0.117 0.105l-71.112 71.112c-18.963-4.439-39.572-2.083-57.844 8.198-21.73 12.226-36.394 30.763-42.407 53.605-2.966 11.27-3.048 22.591-3.128 33.539-0.011 1.563-0.022 3.126-0.042 4.686-0.155 12.133-1.227 20.981-6.252 30.298-1.1 2.04-3.068 4.338-5.153 6.771-5.415 6.32-12.83 14.976-9.505 26.666 4.47 15.691 20.432 19.483 36.091 19.483 0.182 0 0.364-4e-3 0.547-5e-3 0.146 9e-3 134.65 0.023 134.65 0.023 4.14 0 7.495-3.355 7.495-7.496s-3.356-7.495-7.495-7.495h-59.06c11.864-4.789 24.251-11.726 34.624-19.448 5.926-4.411 10.98-8.923 15.021-13.41 9.974-11.075 16.923-23.328 20.75-35.948h58.183c5.92 0 10.736 4.816 10.736 10.736 0 14.186 11.541 25.727 25.726 25.727h23.497c8.917 0 16.172 7.254 16.172 16.172s-7.255 16.172-16.172 16.172h-94.695c-4.14 0-7.495 3.355-7.495 7.495s3.356 7.496 7.495 7.496h94.695c17.183 0 31.163-13.98 31.163-31.163s-13.979-31.163-31.163-31.163h-23.497c-5.919 0-10.735-4.816-10.735-10.736 0-14.186-11.541-25.727-25.727-25.727h-55.131c0.913-8.649 0.381-17.322-1.652-25.769l70.617-70.618c0.042-0.038 0.075-0.08 0.113-0.12zm-104.02 137.42c-3.381 3.754-7.698 7.595-12.833 11.418-10.435 7.768-23.65 14.919-35.35 19.128-10.585 3.806-21.549 6.48-32.616 8.444-11.219 1.991-23.494 4.009-34.906 3.887-6.704-0.071-18.333-0.572-20.614-8.608-1.008-3.552 1.313-6.78 6.472-12.802 2.507-2.927 5.1-5.954 6.964-9.409 7.078-13.125 7.987-27.434 8.089-41.99 0.076-10.483 0.148-20.385 2.634-29.832 4.956-18.827 17.149-34.166 35.26-44.357 10.144-5.708 21.173-8.417 32.059-8.417 22.938 0 45.236 12.032 57.262 33.401 13.96 24.806 9.2 55.128-12.421 79.137zm27.68-82.267c-0.69-1.418-1.41-2.829-2.194-4.222-8.57-15.228-21.394-26.577-36.146-33.44l60.666-60.666 38.001 38z"/></g></g>















</svg>
