<svg width="341.33" height="512" version="1.1" viewBox="0 0 341.33 512" xml:space="preserve" xmlns="http://www.w3.org/2000/svg">
<g transform="translate(-96.18 -2.1697)">
		<path d="m266.85 2.1697c-94.101 0-170.67 76.564-170.67 170.67 0 104 146.73 322.69 152.98 331.93 3.968 5.867 10.56 9.3872 17.621 9.4082h0.0645c7.04 0 13.653-3.4768 17.621-9.3008 6.251-9.131 153.04-225.32 153.04-332.03 0-94.102-76.565-170.67-170.67-170.67z" fill="#a9bf00"/>
	<circle cx="-75.413" cy="172.47" r="171.59" fill="#000d20" fill-opacity=".51269" stroke-width="1.7159"/><g transform="matrix(.5475 0 0 .5475 144.21 72.474)" fill="#fff"><path d="m430.8 29.539-20.074-10.383c-50.102-25.547-109.41-25.539-159.5 0.01953l-27.23 14.086-27.27-14.105c-50.102-25.547-109.41-25.539-159.5 0.015625l-20.039 10.367c-10.578 5.4453-17.215 16.352-17.191 28.25v261.68c0 11.094 5.7773 21.387 15.25 27.16s21.27 6.1953 31.129 1.1133c44.348-22.621 96.848-22.629 141.2-0.0234l31.82 16.465c0.12109 0.0586 0.24609 0.0976 0.36328 0.16015 0.16015 0.0742 0.32031 0.14844 0.48437 0.21485 0.2461 0.0976 0.5 0.18359 0.7461 0.26172 0.16015 0.0508 0.3164 0.10156 0.47656 0.14453 0.28125 0.0742 0.5625 0.1289 0.84766 0.17578 0.13671 0.0234 0.26953 0.0547 0.40625 0.0742 0.84375 0.11328 1.6992 0.11328 2.543 0 0.13672-0.0195 0.27344-0.0508 0.41016-0.0742 0.28125-0.0469 0.5625-0.10156 0.84375-0.17578 0.16016-0.0391 0.31641-0.0937 0.47656-0.14453 0.25391-0.0781 0.5-0.16407 0.75-0.26172 0.16016-0.0664 0.32032-0.14063 0.48047-0.21485 0.1211-0.0586 0.2461-0.10156 0.36328-0.16015l31.785-16.441c44.348-22.621 96.848-22.629 141.2-0.0234 9.8633 5.1055 21.668 4.6953 31.152-1.0742 9.4844-5.7735 15.273-16.074 15.273-27.176v-261.68c0.0273-11.898-6.6133-22.809-17.195-28.25zm-313.79 281.24c-27.734-0.0117-55.078 6.5586-79.781 19.176-3.6602 1.8945-8.043 1.7422-11.562-0.40234-3.5195-2.1406-5.668-5.9648-5.668-10.086v-261.68c-0.01172-4.418 2.457-8.4648 6.3828-10.484l20-10.348c44.348-22.617 96.848-22.625 141.2-0.019531l26.418 13.668v288.26l-17.27-8.9297c-24.684-12.605-52.004-19.172-79.719-19.156zm310.99 8.6875c0 4.1289-2.1562 7.957-5.6875 10.098-3.5312 2.1406-7.9219 2.2812-11.582 0.37109-50.102-25.547-109.41-25.539-159.5 0.0195l-17.23 8.9141v-288.26l26.379-13.648c44.348-22.617 96.848-22.625 141.2-0.01953l20.039 10.367c3.9258 2.0195 6.3945 6.0664 6.3828 10.484z"/></g></g>















</svg>
