<svg width="341.33" height="512" version="1.1" viewBox="0 0 341.33 512" xml:space="preserve" xmlns="http://www.w3.org/2000/svg">
<g transform="translate(-96.18 -2.1697)">
		<path d="m266.85 2.1697c-94.101 0-170.67 76.564-170.67 170.67 0 104 146.73 322.69 152.98 331.93 3.968 5.867 10.56 9.3872 17.621 9.4082h0.0645c7.04 0 13.653-3.4768 17.621-9.3008 6.251-9.131 153.04-225.32 153.04-332.03 0-94.102-76.565-170.67-170.67-170.67z" fill="#a9bf00"/>
	<circle cx="-75.413" cy="172.47" r="171.59" fill="#000d20" fill-opacity=".51269" stroke-width="1.7159"/><g transform="matrix(.52981 0 0 .52981 222.47 62.475)" fill="#fff"><path d="m161.63 349.24c3.9062-18 5.8516-37.52 5.7812-58.004-0.0469-12.746-1.9726-25.473-5.7148-37.828-4e-3 -8e-3 -8e-3 -0.0117-0.0117-0.0195-4e-3 -8e-3 0-0.0117-4e-3 -0.0195-1.5117-4.8789-3.332-9.7188-5.4062-14.387l-8.0469-18.105c-6.5234-14.676-9.832-30.258-9.832-46.332v-37.688l8.9219-2.9727c7.1992-2.3984 11.52-9.5781 10.273-17.074l-0.36719-2.1602c-3.5546-21.356-23.129-35.981-44.668-33.301l-1.8203 0.23438c-10.504 1.332-20.984-3.1328-27.344-11.609l-4.5391-6.0586c2.3047-10.062 2.1094-20.375-0.59375-30.027l-1.7734-6.3594c-5.6016-20-26.414-31.742-46.43-26.129-9.6836 2.707-17.746 9.0273-22.68 17.801-4.9336 8.7656-6.1562 18.934-3.4453 28.621l1.9727 7.0664c3.4258 12.273 8.125 29.074 24.355 32.828 5.7461 1.3242 8.6445 2.6523 10.031 3.4844-0.32031 0.28125-0.67188 0.55469-0.98047 0.75-0.30078 0.17969-0.58594 0.38672-0.85938 0.60547l-17.059 14.227c-16.668 13.879-24.375 35.719-20.121 56.988 0.074218 0.37109 0.17969 0.73047 0.3125 1.0859l12.082 31.738c1.2734 3.3359 3.9141 5.9961 7.2383 7.293 3.3281 1.2969 7.082 1.1211 10.281-0.47266l14.477-7.2383 1.0156 3.0391c1.3945 4.1875 0.95312 8.8945-1.2148 12.902-16.07 29.754-17.52 63.41-16.953 80.824 0.0039 0.11719 0.07813 0.21485 0.08984 0.32813-0.0078 0.18359-0.09766 0.33984-0.08984 0.52734 0.10156 3.0391-1.8086 5.8398-4.6328 6.7969-4.4805 1.5352-8.1016 4.9453-9.9336 9.3594-1.8594 4.4805-1.707 9.543 0.42188 13.902l8.2773 16.926 13.48 68.945c0.62891 3.1992 3.4336 5.5117 6.6992 5.5117h116.05c1.9726 0 3.8555-0.85156 5.1562-2.3438 1.293-1.4883 1.8789-3.4688 1.6055-5.4297l-4.9453-35.41c-1.0508-7.4726-0.73047-15.148 0.9375-22.816zm-104.15-130.63c3.9531-7.3203 4.7305-15.961 2.1523-23.715l-0.53125-1.5977c0.26953 4e-3 0.52344 0.0781 0.79297 0.0781 9.0742 0 17.625-3.9805 23.48-10.914 2.4258-2.8789 2.0664-7.1875-0.82031-9.6211-2.8867-2.4375-7.1875-2.0586-9.6211 0.82032-3.2461 3.8555-8 6.0586-13.039 6.0586-9.4141 0-17.066-7.6523-17.066-17.066 0-3.7734-3.0547-6.8242-6.8281-6.8242s-6.8242 3.0508-6.8242 6.8242c0 8.5703 3.543 16.312 9.2188 21.891l-12.355 6.1797-11.484-30.176c-3.0312-16.18 2.9062-32.719 15.582-43.273l16.699-13.926c4.3242-2.7734 8.793-8.0234 7.8203-14.211-1.4414-9.1133-12.855-12.766-21.312-14.727-7.7266-1.7891-10.914-11.148-14.289-23.195l-1.9727-7.0664c-1.7266-6.1797-0.94531-12.66 2.1992-18.254 3.1484-5.5859 8.2812-9.6211 14.461-11.344 12.715-3.5469 26.027 3.8984 29.602 16.652l1.7734 6.3594c2.3242 8.3008 2.2383 17.273-0.24609 25.949-0.59375 2.0508-0.1875 4.2656 1.0977 5.9727l6.5078 8.6797c9.2812 12.387 24.625 18.859 39.973 16.965l1.8203-0.23438c14.191-1.7734 27.145 7.8945 29.492 22.008l0.36719 2.1602c0.13281 0.82031-0.33985 1.6055-1.125 1.875l-13.59 4.5195c-2.7852 0.9336-4.6641 3.5391-4.6641 6.4805v26.758c-0.16016 0.1875-0.37891 0.29688-0.51953 0.50391-3.5625 5.1328-11.441 8.6172-20.32 4.1797-3.3672-1.6758-7.4805-0.32032-9.1602 3.0508-1.6875 3.375-0.32031 7.4726 3.0547 9.1602 4.8242 2.4141 9.6172 3.4688 14.152 3.4688 4.668 0 9.0274-1.1523 12.867-3.0547 0.19531 17.473 3.832 34.434 10.93 50.418l8.0547 18.113c0.9336 2.1055 1.8125 4.2539 2.6328 6.4219l-104.34 32.508c0.31641-17.066 3.2266-42.359 15.379-64.855zm-21.109 121.21c5.9023-0.82813 18.117-3.7969 34.133-14.473 3.1406-2.0938 3.9883-6.3242 1.8945-9.4648-2.0938-3.1406-6.3281-3.9805-9.4688-1.8945-17.957 11.973-30.031 12.492-30.41 12.508-0.53516 4e-3 -1.0117 0.19531-1.5078 0.31641l-4.3789-8.9492c-0.5625-1.1484-0.28906-2.168-0.08203-2.6719 0.19922-0.46875 0.6875-1.3164 1.7344-1.6719 7.1328-2.4297 12.125-8.4453 13.469-15.641l108.64-33.848c0.80079 3.3125 1.5 6.6406 2.0156 9.9922l-27.039 12.113c-3.4414 1.5391-4.9805 5.582-3.4336 9.0195 1.1328 2.5352 3.6172 4.0352 6.2305 4.0352 0.9336 0 1.8828-0.19531 2.7891-0.60156l22.688-10.168c0.0273 0.95313 0.11329 1.9102 0.11719 2.8672 0.0664 19.492-1.7734 38.02-5.4726 55.055-2.0078 9.2383-2.3828 18.523-1.1133 27.605l2.668 19.121c-22.066-31.406-28.492-80.555-28.562-81.082-0.46484-3.7305-3.7656-6.3633-7.625-5.918-3.7422 0.47265-6.3867 3.8789-5.9219 7.6211 0.28516 2.293 6.9883 53.684 31.434 87.898h-63.984c1.5469-23.586 5.0742-46.5 5.1094-46.738 0.58203-3.7305-1.9727-7.2148-5.6992-7.793-3.7266-0.54688-7.207 1.9727-7.793 5.6992-0.15625 1-3.7461 24.332-5.2969 48.832h-13.055z"/></g></g>















</svg>
