<svg width="341.33" height="512" version="1.1" viewBox="0 0 341.33 512" xml:space="preserve" xmlns="http://www.w3.org/2000/svg">
<g transform="translate(-96.18 -2.1697)">
		<path d="m266.85 2.1697c-94.101 0-170.67 76.564-170.67 170.67 0 104 146.73 322.69 152.98 331.93 3.968 5.867 10.56 9.3872 17.621 9.4082h0.0645c7.04 0 13.653-3.4768 17.621-9.3008 6.251-9.131 153.04-225.32 153.04-332.03 0-94.102-76.565-170.67-170.67-170.67z" fill="#a9bf00"/>
	<circle cx="-75.413" cy="172.47" r="171.59" fill="#000d20" fill-opacity=".51269" stroke-width="1.7159"/><g transform="matrix(.50847 0 0 .50847 146.85 96.859)" fill="#fff"><path d="m467.1 26.527c-3.0391-1.8008-6.7969-1.8711-9.8984-0.17969l-108.3 59.133v-35.48c-0.0312-27.602-22.398-49.969-50-50h-248.91c-27.602 0.03125-49.969 22.398-50 50v197.42c0.03125 27.602 22.398 49.969 50 50h248.91c27.602-0.0312 49.969-22.398 50-50v-34.836l108.3 59.133c3.0977 1.6914 6.8594 1.625 9.8945-0.17578 3.0391-1.8047 4.8984-5.0742 4.8984-8.6016v-227.82c0-3.5312-1.8633-6.7969-4.8984-8.5977zm-138.2 220.9c-0.0156 16.562-13.438 29.98-30 30h-248.9c-16.562-0.0195-29.98-13.438-30-30v-197.43c0.019531-16.559 13.438-29.98 30-30h248.91c16.559 0.01953 29.98 13.441 30 30zm123.1-1.3359-103.09-56.289v-81.535l103.09-56.285z"/></g></g>















</svg>
