<svg width="341.33" height="512" version="1.1" viewBox="0 0 341.33 512" xml:space="preserve" xmlns="http://www.w3.org/2000/svg">
<g transform="translate(-96.18 -2.1697)">
		<path d="m266.85 2.1697c-94.101 0-170.67 76.564-170.67 170.67 0 104 146.73 322.69 152.98 331.93 3.968 5.867 10.56 9.3872 17.621 9.4082h0.0645c7.04 0 13.653-3.4768 17.621-9.3008 6.251-9.131 153.04-225.32 153.04-332.03 0-94.102-76.565-170.67-170.67-170.67z" fill="#a9bf00"/>
	<circle cx="-75.413" cy="172.47" r="171.59" fill="#000d20" fill-opacity=".51269" stroke-width="1.7159"/><g transform="matrix(.50672 0 0 .50672 172.32 72.475)" fill="#fff"><path d="m355.34 230.86c0-3.7695-3.0547-6.8281-6.8281-6.8281s-6.8242 3.0586-6.8242 6.8281c0 45.41-31.285 83.867-75.094 93.363v-20.863c35.293-9.1172 61.438-41.227 61.438-79.328v-102.4c0-45.172-36.746-81.922-81.918-81.922-45.176 0-81.922 36.75-81.922 81.922v102.4c0 38.102 26.148 70.211 61.441 79.328v20.863c-43.816-9.4961-75.094-47.945-75.094-93.367 0-3.7695-3.0547-6.8242-6.8281-6.8242s-6.8242 3.0547-6.8242 6.8242c0 52.91 37.145 97.535 88.746 107.29v15.598h-27.309c-18.816 0-34.133 15.312-34.133 34.133 0 3.7695 3.0547 6.8242 6.8281 6.8242h150.19c3.7734 0 6.8242-3.0547 6.8242-6.8242 0-18.82-15.312-34.133-34.133-34.133h-27.305v-15.602c51.598-9.75 88.746-54.383 88.746-107.28zm-177.15 0h33.793c3.7734 0 6.8281-3.0586 6.8281-6.8281s-3.0547-6.8242-6.8281-6.8242h-34.133v-20.48h34.133c3.7734 0 6.8281-3.0586 6.8281-6.8281s-3.0547-6.8281-6.8281-6.8281h-34.133v-20.477h34.133c3.7734 0 6.8281-3.0586 6.8281-6.8281 0-3.7695-3.0547-6.8281-6.8281-6.8281h-34.133v-20.48h34.133c3.7734 0 6.8281-3.0547 6.8281-6.8242s-3.0547-6.8281-6.8281-6.8281h-33.793c3.4375-34.449 32.59-61.438 67.926-61.438 35.336 0 64.488 26.988 67.926 61.438h-33.793c-3.7734 0-6.8281 3.0586-6.8281 6.8281s3.0547 6.8242 6.8281 6.8242h34.133v20.48h-34.133c-3.7734 0-6.8281 3.0586-6.8281 6.8281 0 3.7695 3.0547 6.8281 6.8281 6.8281h34.133v20.477h-34.133c-3.7734 0-6.8281 3.0586-6.8281 6.8281s3.0547 6.8281 6.8281 6.8281h34.133v20.48h-34.133c-3.7734 0-6.8281 3.0547-6.8281 6.8242s3.0547 6.8281 6.8281 6.8281h33.793c-3.0274 30.359-26.035 54.906-55.641 60.312h-0.0117c-3.9883 0.72657-8.082 1.125-12.273 1.125-35.336 0-64.488-26.988-67.926-61.438zm115.71 136.53c8.9023 0 16.492 5.707 19.312 13.656h-134.2c2.8203-7.9492 10.414-13.656 19.312-13.656h34.133c3.7734 0 6.8281-3.0547 6.8281-6.8242v-54.922c2.25 0.1875 4.5234 0.30859 6.8242 0.30859s4.5742-0.12109 6.8281-0.30859v54.922c0 3.7695 3.0547 6.8242 6.8281 6.8242z"/><path d="m311.44 40.535c5.8711 1.7344 10.875 5.1445 14.48 9.8633 3.6406 4.7656 5.6211 10.551 5.7148 16.727 0.0586 3.7344 3.1055 6.7227 6.8281 6.7227h0.10547c3.7656-0.05859 6.7774-3.1641 6.7188-6.9336-0.14062-9.1211-3.0859-17.695-8.5117-24.801-5.3789-7.0391-12.809-12.113-21.469-14.668-3.6094-1.0625-7.4062 1.0039-8.4805 4.6133-1.0664 3.6133 1 7.4102 4.6133 8.4766z"/><path d="m358.55 25.465c-9.6133-12.57-23.387-21.547-38.781-25.277-3.6602-0.87109-7.3516 1.3633-8.2383 5.0312-0.88672 3.6641 1.3672 7.3555 5.0273 8.2422 12.547 3.0352 23.312 10.051 31.141 20.293 7.3438 9.6094 11.277 21.133 11.387 33.324 0.0312 3.75 3.0781 6.7656 6.8242 6.7656h0.0586c3.7695-0.03125 6.8008-3.1133 6.7695-6.8867-0.13282-15.168-5.0391-29.516-14.188-41.492z"/><path d="m107.09 7.5781-20.117 20.129c-2.668 2.6641-2.668 6.9883 0 9.6523 1.332 1.332 3.0781 2 4.8242 2 1.7461 0 3.4961-0.66797 4.8281-2l20.121-20.129c2.6641-2.6641 2.6641-6.9883 0-9.6523-2.668-2.6641-6.9883-2.6641-9.6562 0z"/><path d="m66.848 47.828-20.125 20.129c-2.668 2.6641-2.668 6.9844 0 9.6523 1.332 1.332 3.0781 2 4.8242 2s3.4961-0.66797 4.8281-2l20.125-20.129c2.668-2.6641 2.668-6.9844 0-9.6523-2.6641-2.6641-6.9844-2.6641-9.6523 0z"/><path d="m56.375 7.5781c-2.6641-2.6641-6.9883-2.6641-9.6523 0-2.668 2.668-2.668 6.9883 0 9.6523l20.125 20.129c1.3359 1.332 3.082 2 4.8281 2 1.7461 0 3.4922-0.66797 4.8242-2 2.668-2.668 2.668-6.9883 0-9.6523z"/><path d="m96.629 47.828c-2.668-2.6641-6.9883-2.6641-9.6523 0-2.668 2.6641-2.668 6.9883 0 9.6523l20.117 20.129c1.3359 1.332 3.082 2 4.8281 2 1.7461 0 3.4922-0.66797 4.8281-2 2.6641-2.6641 2.6641-6.9883 0-9.6523z"/><path d="m27.656 203.55c-15.062 0-27.309 12.25-27.309 27.309 0 15.055 12.246 27.305 27.309 27.305 15.059 0 27.305-12.25 27.305-27.305 0-15.059-12.246-27.309-27.305-27.309zm0 40.961c-7.5273 0-13.656-6.125-13.656-13.652 0-7.5312 6.1289-13.652 13.656-13.652 7.5234 0 13.652 6.1211 13.652 13.652 0 7.5274-6.1289 13.652-13.652 13.652z"/><path d="m102.75 152.35c0 5.6562-4.5859 10.242-10.242 10.242s-10.238-4.5859-10.238-10.242 4.582-10.238 10.238-10.238 10.242 4.582 10.242 10.238z"/></g></g>















</svg>
