<svg width="341.33" height="512" version="1.1" viewBox="0 0 341.33 512" xml:space="preserve" xmlns="http://www.w3.org/2000/svg">
<g transform="translate(-96.18 -2.1697)">
		<path d="m266.85 2.1697c-94.101 0-170.67 76.564-170.67 170.67 0 104 146.73 322.69 152.98 331.93 3.968 5.867 10.56 9.3872 17.621 9.4082h0.0645c7.04 0 13.653-3.4768 17.621-9.3008 6.251-9.131 153.04-225.32 153.04-332.03 0-94.102-76.565-170.67-170.67-170.67z" fill="#a9bf00"/>
	<circle cx="-75.413" cy="172.47" r="171.59" fill="#000d20" fill-opacity=".51269" stroke-width="1.7159"/><g transform="matrix(.43246 0 0 .43246 166.85 72.475)" fill="#fff"><path id="XMLID_469_" d="m455.58 10.396c0-6.654-6.179-11.594-12.659-10.142l-280.66 62.726c-4.75 1.061-8.126 5.275-8.126 10.142v290.48c-17.386-13.946-40.949-20.093-63.238-20.093-45.419 0-84.022 25.371-84.022 59.48 0 34.096 38.582 59.479 84.022 59.479 45.443 0 84.023-25.384 84.023-59.479v-220.74l259.87-58.08v176.71c-17.418-13.969-40.995-20.093-63.238-20.093-45.43 0-84.023 25.376-84.023 59.479 0 34.093 38.577 59.479 84.023 59.479 45.443 0 84.023-25.384 84.023-59.479-1e-3 -20.575-1e-3 -325.84-1e-3 -329.87zm-20.785 12.972v17.155l-259.87 58.08v-17.155zm-343.89 418.32c-34.279 0-63.237-17.72-63.237-38.694 0-20.976 28.959-38.695 63.237-38.695s63.238 17.72 63.238 38.695-28.96 38.694-63.238 38.694zm84.023-280.73v-41.057l259.87-58.081v41.057zm196.63 218c-34.279 0-63.238-17.72-63.238-38.694s28.96-38.694 63.238-38.694 63.238 17.72 63.238 38.694-28.959 38.694-63.238 38.694z"/></g></g>















</svg>
