<svg width="341.33" height="512" version="1.1" viewBox="0 0 341.33 512" xml:space="preserve" xmlns="http://www.w3.org/2000/svg">
<g transform="translate(-96.18 -2.1697)">
		<path d="m266.85 2.1697c-94.101 0-170.67 76.564-170.67 170.67 0 104 146.73 322.69 152.98 331.93 3.968 5.867 10.56 9.3872 17.621 9.4082h0.0645c7.04 0 13.653-3.4768 17.621-9.3008 6.251-9.131 153.04-225.32 153.04-332.03 0-94.102-76.565-170.67-170.67-170.67z" fill="#a9bf00"/>
	<circle cx="-75.413" cy="172.47" r="171.59" fill="#000d20" fill-opacity=".51269" stroke-width="1.7159"/><g transform="matrix(.44638 0 0 .44638 164.52 72.369)" fill="#fff"><path d="m442.25 1.3086-128.23 74.051c-2.4609-17.41-16.254-31.027-33.691-33.266-17.438-2.2422-34.223 7.4492-41 23.672-6.7812 16.223-1.8828 34.973 11.961 45.809l-22.008 12.719-21.992-12.688c13.82-10.859 18.684-29.609 11.895-45.816-6.793-16.211-23.57-25.891-41.004-23.656-17.43 2.2305-31.227 15.828-33.715 33.227l-128.17-74.035c-1.8359-1.0625-4.0234-1.3477-6.0742-0.79688-2.0508 0.55078-3.8008 1.8945-4.8594 3.7344-11.047 19.133-4.4922 43.594 14.641 54.641l93.789 54.145-4.4766 57.68c-0.60547 7.75-2.2969 15.375-5.0273 22.656l-13.109 34.961c-4.7227 12.672-5.1914 26.539-1.3281 39.504l6.0859 20.309h-19.641c-13.254 0-24 10.746-24 24 0.05859 13.234 10.77 23.945 24 24h40c0.29687 0 0.58984-0.0156 0.88281-0.0469l30.297-3.3672-6.0274 90.398v1.1211c-0.0469 12.941 10.203 23.578 23.137 24.012 12.934 0.42969 23.871-9.4961 24.688-22.41l7.043-105.12h-0.1875c0.11328-0.76953 0.11328-1.5508 0-2.3203l-15.582-67.52c-3.1836-13.969-3.4805-28.441-0.86328-42.527l49.598-28.609 27.203 15.719 0.71875 11.203-41.359 89.375c-4.4844 9.9492-5.5234 21.113-2.9531 31.719l24.488 97.977c2.8633 11.055 12.82 18.785 24.238 18.816 7.4414-0.0117 14.488-3.3555 19.195-9.1133 4.7109-5.7617 6.5938-13.328 5.125-20.625l-18.648-93.652c11.512 8.0742 27.383 5.3281 35.512-6.1445l27.027-37.883c4.8867-6.7617 7.5117-14.895 7.5039-23.238l-0.082-44.961 9.6016-97.109 91.641-52.922c19.078-11.094 25.641-35.496 14.703-54.664-1.0586-1.8438-2.8047-3.1953-4.8594-3.75-2.0547-0.55078-4.2422-0.26562-6.0859 0.79688zm-166.81 56.555c12.789-0.0078 23.16 10.359 23.16 23.148 4e-3 12.789-10.363 23.156-23.152 23.152-12.789 0-23.156-10.371-23.152-23.16 0.0312-12.766 10.375-23.109 23.145-23.141zm-115.55 23.199c-0.50391-8.6016 3.793-16.77 11.168-21.223s16.609-4.4531 23.984 0c7.3711 4.4531 11.672 12.621 11.168 21.223 4e-3 9.5039-5.8438 18.027-14.711 21.449l-31.352-18.105c-0.17187-1.1133-0.25391-2.2422-0.25781-3.3672zm-89.297 236.65c-1.4844-1.4648-2.3164-3.4688-2.2969-5.5547 0-4.418 3.582-8 8-8h24.441l4.8008 16h-29.242c-2.1562 0.0117-4.2227-0.875-5.7031-2.4453zm94.777 114.45c-4.3711-4e-3 -7.9141-3.5469-7.9219-7.918v-0.58594l6.1953-92.703 16.086-1.793-6.3984 95.586c-0.30859 4.1719-3.7773 7.4062-7.9609 7.4141zm13.121-118.96-56.441 6.2695-16.863-56.215c-2.8672-9.6094-2.5195-19.891 0.98438-29.289l13.117-34.969c3.2578-8.6836 5.2734-17.781 5.9922-27.031l4.875-62.703c0.23438-3.0781-1.3242-6.0156-4-7.5508l-98.152-56.672c-8.8086-5.0859-13.453-15.172-11.594-25.168l289.14 166.94c-7.7383 6.5977-18.793 7.6094-27.602 2.5312l-80.391-46.402c-1.9688-1.1367-4.3242-1.3828-6.4844-0.67579-2.1602 0.70313-3.918 2.293-4.8359 4.3711l-14.145 32.043c-10.461 23.824-12.984 50.387-7.1992 75.758zm7.9414-127.27c0.11328-0.25781 0.1914-0.52734 0.30468-0.80078l10.543-23.895 15.953 9.2148zm134.86 68c4e-3 4.9961-1.5742 9.8672-4.5117 13.91l-27.039 37.922c-2.7344 4.2031-8.2461 5.5898-12.645 3.1875-4.4024-2.4062-6.2109-7.7891-4.1562-12.363v-0.12109l23.578-53.031-14.617-6.4961-23.758 53.441-8.2344 18.551c-0.66407 1.5078-0.85157 3.1836-0.52735 4.8008l20.801 104.24c0.89063 4.7227-2.125 9.2969-6.8125 10.34-4.6914 1.0391-9.3594-1.8281-10.547-6.4844l-24.402-97.871c-1.75-7.0977-1.0586-14.582 1.9688-21.238l42.16-91.199c0.5625-1.207 0.80859-2.5391 0.71875-3.8672l-0.19141-3.0156c17.758 8.5703 39.117 2.6406 49.922-13.855l-1.7148 17.383zm109.2-208.86-95.203 54.961c-2.2461 1.2773-3.7383 3.5664-4 6.1445l-7.1992 73.645c-0.64063-0.88672-1.457-1.6328-2.3984-2.1914l-76.395-44.102 24.195-13.977c18.219 3.3281 36.168-7.0312 42.398-24.473l130.24-75.199c1.8164 10.008-2.8398 20.082-11.637 25.191z"/></g></g>















</svg>
