<svg width="341.33" height="512" version="1.1" viewBox="0 0 341.33 512" xml:space="preserve" xmlns="http://www.w3.org/2000/svg">
<g transform="translate(-96.18 -2.1697)">
		<path d="m266.85 2.1697c-94.101 0-170.67 76.564-170.67 170.67 0 104 146.73 322.69 152.98 331.93 3.968 5.867 10.56 9.3872 17.621 9.4082h0.0645c7.04 0 13.653-3.4768 17.621-9.3008 6.251-9.131 153.04-225.32 153.04-332.03 0-94.102-76.565-170.67-170.67-170.67z" fill="#a9bf00"/>
	<circle cx="-75.413" cy="172.47" r="171.59" fill="#000d20" fill-opacity=".51269" stroke-width="1.7159"/><g transform="matrix(.39062 0 0 .39062 166.73 72.475)" fill="#fff"><path d="m495.82 216.24h-30.516c-5.6562 0-10.641 2.9062-13.555 7.2969-23.328-2.4375-26.438-6.1758-28.957-9.2227-3.4297-4.1445-7.4961-7.6602-12.09-10.449l-70.121-42.594c-14.281-33.172-38.168-53.91-55.895-65.535-6.9023-4.5273-11.023-12.195-11.023-20.512 0-4.9062 1.4453-9.6484 4.1797-13.719l17.438-25.953c3.4766-5.168 4.6758-11.371 3.3828-17.465s-4.9102-11.273-10.184-14.59c-3.6445-2.2852-7.8438-3.4961-12.141-3.4961h-82.852c-4.3008 0-8.5 1.2109-12.141 3.4961-5.2734 3.3125-8.8906 8.4922-10.184 14.59-1.293 6.0938-0.0937 12.297 3.3828 17.465l17.438 25.953c2.7344 4.0703 4.1797 8.8125 4.1797 13.719 0 8.3164-4.1211 15.984-11.023 20.512-26.27 17.227-84.973 68-62.777 167.23 12.379 55.348 21.941 94.355 27.691 113.12h-123.67c-10.199 0-19.117 7.25-21.199 17.234l-4.2266 20.289c-1.3359 6.4102 0.26562 13 4.3984 18.082 4.1289 5.0781 10.254 7.9922 16.801 7.9922h425.51c6.5508 0 12.672-2.9141 16.805-7.9922 4.1289-5.082 5.7305-11.672 4.3945-18.082l-4.2266-20.289c-2.082-9.9844-11-17.234-21.199-17.234h-123.67c1.7188-5.6133 3.793-13.082 6.1953-22.332h8.1406c23.887 0 47.559-3.5664 70.379-10.602l46.613-5.875c2.7852 4.9766 8.1016 8.3555 14.203 8.3555h30.516c8.9648 0 16.262-7.293 16.262-16.262v-96.871c0-8.9688-7.2969-16.266-16.262-16.266zm-309.98-195.04c0.44141-2.0898 1.6797-3.8633 3.4883-5 1.25-0.78516 2.6875-1.1992 4.1602-1.1992h82.852c1.4727 0 2.9141 0.41406 4.1602 1.1992 1.8086 1.1367 3.0469 2.9102 3.4922 5 0.4414 2.0859 0.0273 4.2148-1.1602 5.9844l-8.6289 12.844h-78.578l-8.6289-12.844c-1.1914-1.7695-1.6016-3.8984-1.1562-5.9844zm7.5234 87.078c11.148-7.3086 17.805-19.668 17.805-33.055 0-7.1523-1.9297-14.082-5.5625-20.195h58.617c-3.6328 6.1133-5.5586 13.043-5.5586 20.195 0 13.387 6.6524 25.746 17.801 33.055 4.5938 3.0117 9.6445 6.6992 14.816 11.133h-112.69c5.25-4.5078 10.312-8.207 14.773-11.133zm256.59 288.11 4.2266 20.289c0.5625 2.6953-0.60547 4.6367-1.3516 5.5547s-2.4102 2.457-5.1641 2.457h-425.51c-2.7539 0-4.418-1.5391-5.1641-2.457s-1.9141-2.8594-1.3516-5.5547l4.2266-20.289c0.64062-3.0703 3.3828-5.2969 6.5156-5.2969h417.05c3.1367 0 5.875 2.2266 6.5195 5.2969zm-145.93-20.297h-138.23c-3.0898-9.207-10.934-36.559-28.797-116.4-7.5312-33.668-5.7305-64.148 5.3164-90.82h27.629c4.1445 0 7.5-3.3555 7.5-7.5s-3.3555-7.5-7.5-7.5h-20.191c4.2344-7.2969 8.9453-13.762 13.832-19.457h142.71c4.8984 5.7109 9.5977 12.18 13.809 19.457h-120.12c-4.1445 0-7.5 3.3555-7.5 7.5s3.3555 7.5 7.5 7.5h99.391c-1.9102 4.668-2.3008 9.8008-1.0781 14.793 1.5352 6.2383 5.4062 11.512 10.891 14.832l12.895 7.832h-83.359c-13.238 0-23.973 10.184-24.434 23.184-0.125 3.4609 0.47657 6.8242 1.7344 9.9258h-7.6914c-6.5898 0-12.734 2.6094-17.312 7.3516-4.5703 4.7383-6.9648 10.98-6.7266 17.574 0.36328 10.301 7.1797 18.832 16.582 21.934-1.4883 3.125-2.3203 6.6172-2.3203 10.305 0 13.262 10.793 24.055 24.055 24.055h11.363c-1.1406 2.7969-1.7695 5.8555-1.7695 9.0547 0 13.266 10.793 24.055 24.055 24.055h54.207c-3.1523 11.922-5.1797 18.605-6.4336 22.328zm97.93-47.734c-0.44141 0.0547-0.8711 0.14844-1.293 0.27734-21.57 6.7188-43.965 10.125-66.559 10.125h-77.852c-4.9922 0-9.0547-4.0625-9.0547-9.0547 0-4.9922 4.0625-9.0547 9.0547-9.0547h49.16c4.1406 0 7.5-3.3594 7.5-7.5 0-4.1445-3.3594-7.5-7.5-7.5h-82.809c-4.9922 0-9.0547-4.0625-9.0547-9.0547s4.0625-9.0547 9.0547-9.0547h82.809c4.1406 0 7.5-3.3555 7.5-7.5s-3.3594-7.5-7.5-7.5h-96.691c-5.0391 0-9.2734-3.9102-9.4453-8.7188-0.0859-2.4844 0.8125-4.8398 2.5312-6.625 1.7266-1.7812 4.0391-2.7656 6.5195-2.7656h97.086c4.1406 0 7.5-3.3594 7.5-7.5 0-4.1445-3.3594-7.5-7.5-7.5h-67.09c-2.4805 0-4.7969-0.98438-6.5195-2.7695-1.7188-1.7812-2.6172-4.1367-2.5312-6.625 0.17188-4.8047 4.4102-8.7148 9.4453-8.7148h103.38c4.2617 0 7.8984-2.7578 9.0508-6.8633 1.1484-4.1055-0.52734-8.3516-4.1719-10.562l-30.012-18.23c-2.0703-1.2539-3.5234-3.2344-4.1016-5.5859-0.57813-2.3476-0.20703-4.7812 1.0469-6.8476 2.5859-4.2734 8.168-5.6406 12.43-3.0625l76.574 46.512c3.1602 1.918 5.957 4.3398 8.3164 7.1914 6.1328 7.4102 14.008 11.855 37.805 14.457v84.086zm95.121 1.0195c0 0.69531-0.5664 1.2617-1.2617 1.2617h-30.516c-0.69532 0-1.2656-0.56641-1.2656-1.2617v-96.875c0-0.69531 0.56641-1.2617 1.2656-1.2617h30.516c0.69531 0 1.2617 0.56641 1.2617 1.2617z"/><path d="m359.13 487.8-39.062-31.426c-3.2266-2.5977-7.9492-2.082-10.543 1.1445-2.5977 3.2266-2.0859 7.9492 1.1406 10.543l35.969 28.934h-223.44l36.043-28.992c3.2266-2.5938 3.7383-7.3164 1.1406-10.543-2.5938-3.2305-7.3164-3.7383-10.543-1.1445l-39.137 31.48c-4.5586 3.668-6.2461 9.6016-4.3047 15.117 1.9414 5.5156 6.9805 9.082 12.828 9.082h231.38c5.8476 0 10.883-3.5625 12.828-9.082 1.9414-5.5156 0.25391-11.449-4.3047-15.113z"/></g></g>















</svg>
