<svg width="341.33" height="512" version="1.1" viewBox="0 0 341.33 512" xml:space="preserve" xmlns="http://www.w3.org/2000/svg">
<g transform="translate(-96.18 -2.1697)">
		<path d="m266.85 2.1697c-94.101 0-170.67 76.564-170.67 170.67 0 104 146.73 322.69 152.98 331.93 3.968 5.867 10.56 9.3872 17.621 9.4082h0.0645c7.04 0 13.653-3.4768 17.621-9.3008 6.251-9.131 153.04-225.32 153.04-332.03 0-94.102-76.565-170.67-170.67-170.67z" fill="#a9bf00"/>
	<circle cx="-75.413" cy="172.47" r="171.59" fill="#000d20" fill-opacity=".51269" stroke-width="1.7159"/><g transform="matrix(.42969 0 0 .42969 156.85 62.476)" fill="#fff">
	
		<path d="m506.1 188.46-245.33-122.67c-3.003-1.501-6.538-1.501-9.54 0l-245.33 122.67c-3.614 1.807-5.897 5.501-5.897 9.54 0 4.041 2.283 7.734 5.897 9.54l81.215 40.607v81.514c0 50.342 74.185 89.778 168.89 89.778s168.89-39.434 168.89-89.778v-81.514l28.346-14.173v77.795c-13.067 4.453-22.494 16.838-22.494 31.393 0 13.196 7.748 24.612 18.932 29.949l-22.659 59.783c-1.242 3.278-0.795 6.957 1.197 9.841s5.273 4.606 8.778 4.606h53.833c3.505 0 6.786-1.722 8.779-4.606 1.991-2.884 2.438-6.563 1.197-9.84l-22.659-59.783c11.182-5.337 18.93-16.753 18.93-29.949 0-14.556-9.43-26.942-22.499-31.394v-88.461l31.536-15.767c3.614-1.807 5.896-5.501 5.896-9.54-2e-3 -4.04-2.285-7.734-5.899-9.541zm-142.99 187.6c-28.431 14.215-66.47 22.045-107.11 22.045s-78.677-7.829-107.11-22.045c-25.703-12.852-40.446-29.764-40.446-46.4v-70.847l142.78 71.393c1.502 0.751 3.136 1.126 4.77 1.126s3.268-0.375 4.77-1.126l142.78-71.393v70.847c0 16.636-14.742 33.548-40.446 46.4zm89.328 49.948 11.467-30.253 11.466 30.253zm23.295-82.846c1e-3 6.524-5.306 11.83-11.828 11.83-6.524 0-11.83-5.307-11.83-11.83 0-6.506 5.279-11.798 11.777-11.827 0.017 0 0.033 2e-3 0.05 2e-3 0.018 0 0.035-2e-3 0.052-2e-3 6.499 0.028 11.779 5.32 11.779 11.827zm-13.996-137.29-204.78-18.492c-5.867-0.534-11.053 3.797-11.583 9.664-0.53 5.868 3.797 11.053 9.664 11.583l170.41 15.388-169.45 84.726-221.48-110.74 221.48-110.74 221.48 110.74z"/>
	
</g></g>















</svg>
