<svg width="341.33" height="512" version="1.1" viewBox="0 0 341.33 512" xml:space="preserve" xmlns="http://www.w3.org/2000/svg">
<g transform="translate(-96.18 -2.1697)">
		<path d="m266.85 2.1697c-94.101 0-170.67 76.564-170.67 170.67 0 104 146.73 322.69 152.98 331.93 3.968 5.867 10.56 9.3872 17.621 9.4082h0.0645c7.04 0 13.653-3.4768 17.621-9.3008 6.251-9.131 153.04-225.32 153.04-332.03 0-94.102-76.565-170.67-170.67-170.67z" fill="#a9bf00"/>
	<circle cx="-75.413" cy="172.47" r="171.59" fill="#000d20" fill-opacity=".51269" stroke-width="1.7159"/><g transform="matrix(.44235 0 0 .44235 153.61 59.234)" fill="#fff">
	
		<path d="m449.51 137.65v-82.38c0-9.072-4.668-17.227-12.487-21.814-7.849-4.605-17.29-4.7-25.251-0.247-76.024 42.516-158.72 67.345-245.8 73.802-0.667 0.049-79.372 0.393-79.372 0.393-19.767 0-36.105 14.923-38.366 34.091h-16.155c-17.685 0-32.075 14.388-32.075 32.074v70.468c0 17.686 14.39 32.075 32.075 32.075h16.153c1.628 13.795 10.544 25.383 22.785 30.799l57.485 158.65c3.593 9.875 13.067 16.511 23.578 16.511h57.687c8.178 0 15.86-3.999 20.551-10.697 4.691-6.7 5.822-15.287 3.03-22.96l-49.389-136.24c80.482 8.361 157.04 32.601 227.82 72.183 3.905 2.184 8.166 3.273 12.42 3.273 4.417-1e-3 8.83-1.175 12.829-3.521 7.819-4.588 12.489-12.742 12.489-21.816v-82.38c35.201-4.56 62.49-34.709 62.49-71.132 0-36.424-27.289-66.574-62.489-71.133zm-401.56 113.72h-15.876c-4.047 0-7.338-3.291-7.338-7.338v-70.467c0-4.044 3.291-7.337 7.338-7.337h15.876zm32.979 32.873c-4.85-2.174-8.242-7.039-8.242-12.688v-125.51h1e-3c0-7.667 6.239-13.905 13.906-13.905h67.333v153.32s-67.92-0.026-68.213-0.044c-2.481-0.287-3.003-0.415-4.785-1.174zm129.16 172.61c0.04 0.101 0.066 0.173-0.041 0.324-0.105 0.151-0.183 0.151-0.288 0.151h-57.687c-0.147 0-0.282-0.093-0.327-0.215l-53.233-146.91h58.411zm214.68-94.559c0 0.179 0 0.322-0.267 0.479-0.318 0.184-0.508 0.079-0.66-6e-3 -76.034-42.52-158.47-68.045-245.18-75.96v-156.04c86.72-7.927 169.16-33.454 245.18-75.97 0.156-0.085 0.349-0.19 0.663-6e-3 0.267 0.157 0.267 0.298 0.267 0.477zm24.737-107.42v-92.185c21.503 4.314 37.752 23.339 37.752 46.092 0 22.754-16.25 41.78-37.752 46.093z"/>
	
</g></g>















</svg>
